<svg xmlns="http://www.w3.org/2000/svg" xmlns:cc="http://web.resource.org/cc/" xmlns:svg="http://www.w3.org/2000/svg" xmlns:xlink="http://www.w3.org/1999/xlink" id="svg580" width="128pt" height="128pt"><metadata id="metadata41"/><defs id="defs582"><linearGradient id="linearGradient5924"><stop id="stop5926" offset="0" stop-color="#000" stop-opacity="1"/><stop id="stop5928" offset="1" stop-color="#fff" stop-opacity="0"/></linearGradient><linearGradient id="linearGradient2102"><stop id="stop2104" offset="0" stop-color="#fff" stop-opacity=".463"/><stop id="stop2108" offset="1" stop-color="#fff" stop-opacity="0"/></linearGradient><linearGradient id="linearGradient828"><stop id="stop829" offset="0" stop-color="#878887" stop-opacity="1"/><stop id="stop897" offset=".847" stop-color="#9d9d9d" stop-opacity="1"/><stop id="stop830" offset="1" stop-color="#b3b3b3" stop-opacity="1"/></linearGradient><linearGradient id="linearGradient846"><stop id="stop847" offset="0" stop-color="#e7e7e7" stop-opacity="1"/><stop id="stop3633" offset=".3" stop-color="#f3f3f3" stop-opacity="1"/><stop id="stop850" offset="1" stop-color="#fff" stop-opacity="1"/></linearGradient><linearGradient id="linearGradient889"><stop id="stop890" offset="0" stop-color="#7d7d82" stop-opacity="1"/><stop id="stop891" offset="1" stop-color="#bfbfbf" stop-opacity="1"/></linearGradient><linearGradient id="linearGradient841"><stop id="stop842" offset="0" stop-color="#314e6c" stop-opacity="1"/><stop id="stop898" offset=".718" stop-color="#98a6b5" stop-opacity="1"/><stop id="stop843" offset="1" stop-color="#fff" stop-opacity="1"/></linearGradient><linearGradient id="linearGradient831" x1="124.392" x2="124.392" y1="148.02" y2="73.306" gradientTransform="matrix(0.880843,0.000000,0.000000,0.968479,6.575090,6.789089)" gradientUnits="userSpaceOnUse" xlink:href="#linearGradient846"/><linearGradient id="linearGradient836" x1="107.269" x2="107.269" y1="122.292" y2="94.449" gradientTransform="matrix(1.056298,0.000000,0.000000,0.807610,6.575090,6.789089)" gradientUnits="userSpaceOnUse" spreadMethod="reflect" xlink:href="#linearGradient828"/><linearGradient id="linearGradient641"><stop id="stop642" offset="0" stop-color="#006ec7" stop-opacity="1"/><stop id="stop643" offset="1" stop-color="#fff" stop-opacity="1"/></linearGradient><linearGradient id="linearGradient644" x1="22.806" x2="22.806" y1="41.214" y2="13.242" gradientTransform="matrix(2.281244,0.000000,0.000000,0.373952,6.575090,6.789089)" gradientUnits="userSpaceOnUse" xlink:href="#linearGradient841"/><linearGradient id="linearGradient651" x1="31.561" x2="31.433" y1="97.273" y2="65.416" gradientTransform="matrix(2.281244,0.000000,0.000000,0.373952,6.575090,6.789089)" gradientUnits="userSpaceOnUse" xlink:href="#linearGradient841"/><linearGradient id="linearGradient892" x1="30.327" x2="30.456" y1="70.576" y2="39.496" gradientTransform="matrix(2.281244,0.000000,0.000000,0.373952,6.575090,6.789089)" gradientUnits="userSpaceOnUse" xlink:href="#linearGradient841"/><linearGradient id="linearGradient3631" x1="38.792" x2="38.792" y1="39.006" y2="90.324" gradientTransform="scale(1.365489,0.732338)" gradientUnits="userSpaceOnUse" xlink:href="#linearGradient846"/></defs><rect id="rect841" width="91.635" height="62.181" x="29.234" y="30.082" fill="#e8e8e8" fill-opacity="1" fill-rule="evenodd" stroke="#000" stroke-linecap="round" stroke-linejoin="round" stroke-miterlimit="4" stroke-width="2.5" font-size="12"/><rect id="rect842" width="91.635" height="13.091" x="29.234" y="30.082" fill="url(#linearGradient651)" fill-opacity="1" fill-rule="evenodd" stroke="#000" stroke-linecap="round" stroke-linejoin="round" stroke-opacity="1" stroke-width="2.309" font-size="12"/><rect id="rect654" width="91.635" height="62.181" x="19.666" y="20.389" fill="#e8e8e8" fill-opacity="1" fill-rule="evenodd" stroke="#000" stroke-linecap="round" stroke-linejoin="round" stroke-miterlimit="4" stroke-width="2.5" font-size="12"/><rect id="rect655" width="91.635" height="13.091" x="19.666" y="20.389" fill="url(#linearGradient892)" fill-opacity="1" fill-rule="evenodd" stroke="#000" stroke-linecap="round" stroke-linejoin="round" stroke-opacity="1" stroke-width="2.309" font-size="12"/><rect id="rect652" width="91.635" height="62.181" x="9.848" y="10.571" fill="#fff" fill-rule="evenodd" stroke="#000" stroke-linecap="round" stroke-linejoin="round" stroke-miterlimit="4" stroke-width="2.5" font-size="12"/><rect id="rect653" width="91.635" height="13.091" x="9.848" y="10.571" fill="url(#linearGradient644)" fill-opacity="1" fill-rule="evenodd" stroke="#000" stroke-linecap="round" stroke-linejoin="round" stroke-opacity="1" stroke-width="2.309" font-size="12"/><path id="path1330" fill="#eed680" fill-opacity="1" fill-rule="evenodd" stroke="#000" stroke-linecap="round" stroke-linejoin="round" stroke-opacity=".397" stroke-width="2.886" d="M 57.766516,138.19085 L 57.766516,148.23736 L 82.733346,131.49325 L 57.766516,114.74923 L 57.766516,124.79564 C 47.066443,124.79564 39.933054,124.42057 39.933054,115.84758 L 39.933054,108.05162 L 50.633127,108.05162 L 32.799666,84.609946 L 14.966225,108.05162 L 25.666287,108.05162 L 25.666287,111.40042 C 25.666287,114.74923 25.666287,111.40042 25.666287,121.44683 C 25.666287,131.49325 36.366370,138.19085 47.066443,138.19085 L 57.766516,138.19085 z" font-size="12"/><path id="path684" fill="#eed680" fill-opacity="1" fill-rule="evenodd" stroke="#000" stroke-linecap="round" stroke-linejoin="round" stroke-miterlimit="4" stroke-opacity="1" stroke-width="2.5" d="M 57.047425,137.47175 L 57.047425,147.51826 L 82.014255,130.77415 L 57.047425,114.03013 L 57.047425,124.07654 C 46.347352,124.07654 39.213963,123.70147 39.213963,115.12848 L 39.213963,107.33252 L 49.914036,107.33252 L 32.080575,83.890855 L 14.247134,107.33252 L 24.947196,107.33252 L 24.947196,110.68132 C 24.947196,114.03013 24.947196,110.68132 24.947196,120.72773 C 24.947196,130.77415 35.647279,137.47175 46.347352,137.47175 L 57.047425,137.47175 z" font-size="12"/><path id="path650" fill="#000" fill-opacity=".296" fill-rule="evenodd" stroke="none" stroke-linecap="round" stroke-linejoin="round" stroke-width="1.976" d="M 85.758461,82.843553 L 85.758461,151.53754 L 151.19527,151.53754 L 151.19527,90.476208 L 143.92451,82.843553 L 85.758461,82.843553 z" font-size="12"/><path id="path584" fill="url(#linearGradient831)" fill-rule="evenodd" stroke="#000" stroke-linecap="round" stroke-linejoin="round" stroke-miterlimit="4" stroke-width="2.5" d="M 85.600458,79.336984 L 85.600458,149.46909 L 149.10541,149.46909 L 149.10541,87.129441 L 142.04931,79.336984 L 85.600458,79.336984 z" font-size="12"/><rect id="rect585" width="44.101" height="25.326" x="92.902" y="80.413" fill="#fff" fill-rule="evenodd" stroke="#000" stroke-linecap="round" stroke-linejoin="round" stroke-width="1.308" font-size="12"/><rect id="rect586" width="33.517" height="25.326" x="103.486" y="80.413" fill="url(#linearGradient836)" fill-rule="evenodd" stroke="#000" stroke-linecap="round" stroke-linejoin="round" stroke-width="1.275" font-size="12"/><rect id="rect587" width="10.584" height="21.429" x="121.126" y="82.362" fill="#fff" fill-rule="evenodd" stroke="#000" stroke-width="1.308" font-size="12"/><rect id="rect588" width="49.393" height="38.962" x="90.893" y="110.507" fill="#e1e1e4" fill-rule="evenodd" stroke="#000" stroke-linecap="round" stroke-linejoin="round" stroke-miterlimit="4" stroke-width="2.5" font-size="12"/><path id="rect2865" fill="url(#linearGradient3631)" fill-opacity="1" fill-rule="evenodd" stroke="none" stroke-linecap="round" stroke-linejoin="round" stroke-miterlimit="4" stroke-width="2.223" d="M 11.203696,24.851179 L 100.12674,24.851179 L 100.12674,71.318801 L 11.203696,71.318801 L 11.203696,24.851179 z" font-size="12"/><path id="path3636" fill="#fff" fill-opacity=".085" fill-rule="evenodd" stroke="none" stroke-linecap="round" stroke-linejoin="round" stroke-miterlimit="4" stroke-width="2.5" d="M 32.197014,121.12848 L 32.197014,107.33252 L 32.080575,85.890855 L 16.925100,106.01048 L 26.303128,105.84099 L 26.303128,110.68132 C 26.303128,114.03013 26.303128,110.68132 26.303128,120.72773 C 26.303128,130.77415 32.197014,129.70147 32.197014,121.12848 z" font-size="12"/><path id="path5162" fill="#000" fill-opacity=".186" fill-rule="evenodd" stroke="none" stroke-linecap="round" stroke-linejoin="round" stroke-miterlimit="4" stroke-width="2.5" d="M 36.222400,130.47590 L 58.018370,130.47590 L 79.799008,130.93132 L 58.323461,145.40883 L 58.323459,136.36978 L 53.652621,136.36978 C 50.303801,136.36978 53.652621,136.36978 43.606201,136.36978 C 33.559781,136.36978 27.649410,130.47590 36.222400,130.47590 z" font-size="12"/><path id="path2859" fill="#fff" fill-opacity=".126" fill-rule="evenodd" stroke="none" stroke-linecap="round" stroke-linejoin="round" stroke-miterlimit="4" stroke-width="2.5" d="M 44.334332,130.53771 L 58.130292,130.53771 L 79.571957,130.42127 L 57.452332,115.26580 L 57.621822,124.64383 L 52.781492,124.64383 C 49.432682,124.64383 54.781492,124.64383 44.735082,124.64383 C 34.688662,124.64383 35.761342,130.53771 44.334332,130.53771 z" font-size="12"/><path id="path2861" fill="#000" fill-opacity=".186" fill-rule="evenodd" stroke="none" stroke-linecap="round" stroke-linejoin="round" stroke-miterlimit="4" stroke-width="2.5" d="M 31.801901,128.98834 L 31.801901,107.19237 L 32.257321,85.411724 L 47.412797,105.87033 L 37.695781,106.20931 L 37.695781,115.55812 C 37.695781,118.90694 37.695781,115.55812 37.695781,125.60454 C 37.695781,135.65096 31.801901,137.56133 31.801901,128.98834 z" font-size="12"/></svg>